Coordinates
version=1
nRows=14
nColumns=40
inDegrees=yes

Units are S.I. units (second, meters, Newtons, ...)
Angles are in degrees.

endheader
time	pelvis_tilt	pelvis_list	pelvis_rotation	pelvis_tx	pelvis_ty	pelvis_tz	hip_flexion_r	hip_adduction_r	hip_rotation_r	knee_angle_r	knee_angle_r_beta	ankle_angle_r	subtalar_angle_r	mtp_angle_r	hip_flexion_l	hip_adduction_l	hip_rotation_l	knee_angle_l	knee_angle_l_beta	ankle_angle_l	subtalar_angle_l	mtp_angle_l	lumbar_extension	lumbar_bending	lumbar_rotation	arm_flex_r	arm_add_r	arm_rot_r	elbow_flex_r	pro_sup_r	wrist_flex_r	wrist_dev_r	arm_flex_l	arm_add_l	arm_rot_l	elbow_flex_l	pro_sup_l	wrist_flex_l	wrist_dev_l
     53.26492857	     -2.36356102	     -6.97764078	      8.75062552	      0.91305035	      0.91985457	      0.50184990	      1.01025552	      7.74308275	    -18.52298602	     13.40640035	     13.40640035	     17.49619215	     -3.47550287	     -3.08063354	     29.26353348	     -9.16645805	      3.06456630	     24.35171602	     24.35171602	      4.69932461	     -8.72752391	      4.10197731	     -8.84404133	      3.77833282	      2.85669761	     56.53880503	    -19.76783546	     -1.94396959	     80.13388712	     44.44123367	      0.00000000	      0.00000000	    -21.38720823	     -9.15825813	     13.20356982	     30.72042385	     44.66444395	      0.00000000	      0.00000000
     53.28485714	     -2.42165076	     -6.97631059	      9.21059080	      0.91327212	      0.91897747	      0.49720958	      0.56216765	      7.56708760	    -18.67776948	     13.30577527	     13.30577527	     17.76744229	     -3.73944136	     -3.05866187	     29.26428029	     -8.77291909	      3.28127277	     24.98368932	     24.98368932	      4.80343199	     -8.86741426	      3.66906304	     -8.74719283	      3.61450504	      2.79892885	     57.00794420	    -19.79051627	     -2.25141430	     80.42488119	     44.44992297	      0.00000000	      0.00000000	    -20.79885175	     -9.15376731	     13.23323832	     30.75345531	     44.67636253	      0.00000000	      0.00000000
     53.30478571	     -2.52594338	     -6.93371003	      9.59119123	      0.91348524	      0.91825542	      0.49242689	      0.13445298	      7.32216856	    -18.81947895	     13.17313843	     13.17313843	     17.95794661	     -3.92985821	     -3.00247427	     29.29288791	     -8.33317406	      3.48454732	     25.63786436	     25.63786436	      5.01762993	     -9.06858831	      3.32250321	     -8.61465918	      3.43423801	      2.72007711	     57.28060481	    -19.72674586	     -2.44868778	     80.60506572	     44.45504732	      0.00000000	      0.00000000	    -20.09586850	     -9.10663041	     13.24673526	     30.86299046	     44.68952580	      0.00000000	      0.00000000
     53.32471429	     -2.58259307	     -7.04286568	      9.87068155	      0.91372672	      0.91760271	      0.48762139	     -0.39258292	      7.26477080	    -18.90356497	     12.91168161	     12.91168161	     18.12476364	     -3.98952832	     -2.73436677	     29.41555465	     -8.02112293	      3.95107339	     26.54880323	     26.54880323	      5.29457889	     -9.66278493	      2.75907119	     -8.52923104	      3.47597711	      2.91362761	     57.44451185	    -19.62944939	     -3.33297131	     81.02029777	     44.48535166	      0.00000000	      0.00000000	    -19.17643898	     -9.02882054	     13.30305867	     30.57988220	     44.71377608	      0.00000000	      0.00000000
     53.34464286	     -2.74177053	     -6.91208696	     10.00460363	      0.91395610	      0.91727716	      0.48281135	     -0.77599696	      6.87409243	    -18.93221935	     12.81516404	     12.81516404	     18.20815743	     -4.06085908	     -2.65046924	     29.36680303	     -7.54186858	      4.05886909	     27.10738581	     27.10738581	      5.71020190	     -9.90860107	      2.46246669	     -8.36773140	      3.21508179	      2.94044443	     57.50320682	    -19.46613220	     -3.40666219	     81.07172699	     44.48860113	      0.00000000	      0.00000000	    -18.45124924	     -9.03323933	     13.28753195	     30.72348281	     44.73015531	      0.00000000	      0.00000000
     53.36457143	     -2.79762030	     -6.88886252	      9.99919168	      0.91412300	      0.91710141	      0.47813618	     -1.23331246	      6.59549795	    -18.92200349	     12.74309519	     12.74309519	     18.24410661	     -3.95431939	     -2.46924207	     29.34394352	     -7.20635555	      4.22573454	     27.92196370	     27.92196370	      6.21370082	    -10.49599478	      2.18360282	     -8.33892508	      3.10915969	      3.15985610	     57.58403520	    -19.38156132	     -3.78540154	     81.06809010	     44.50740671	      0.00000000	      0.00000000	    -17.64127249	     -9.11313249	     13.23298949	     30.73419931	     44.75787734	      0.00000000	      0.00000000
     53.38450000	     -3.02555843	     -6.82368102	      9.90624850	      0.91414173	      0.91713156	      0.47341501	     -1.47413952	      6.21167448	    -18.87722870	     12.71779443	     12.71779443	     18.14129702	     -3.90450418	     -2.34612658	     29.23229779	     -6.83752641	      4.25400176	     28.26190726	     28.26190726	      6.75698040	    -10.75797126	      1.94865892	     -8.17208792	      3.00814732	      3.27595404	     57.53921695	    -19.17729505	     -3.84287317	     81.02568153	     44.51248431	      0.00000000	      0.00000000	    -16.93342757	     -9.13079660	     13.19245241	     30.89313982	     44.77724662	      0.00000000	      0.00000000
     53.40442857	     -3.19115246	     -6.71957315	      9.69147940	      0.91404564	      0.91747012	      0.46888325	     -1.62687310	      5.69199059	    -19.00915846	     13.05215372	     13.05215372	     18.44614440	     -3.33427969	     -1.24732674	     29.06221407	     -6.47265511	      4.24155626	     28.67684271	     28.67684271	      7.51581457	    -11.18550078	      2.50048904	     -8.05402125	      2.83786825	      3.85383594	     57.21318162	    -18.76197386	     -5.67684222	     80.87946156	     44.62391244	      0.00000000	      0.00000000	    -15.63586645	     -9.07335833	     12.64486821	     29.98919166	     44.93579635	      0.00000000	      0.00000000
     53.42435714	     -3.36003194	     -6.68311551	      9.36424334	      0.91383555	      0.91801736	      0.46470211	     -1.73655035	      5.28715009	    -18.80876327	     13.32372327	     13.32372327	     18.16194175	     -3.28645072	     -1.15301109	     28.77504890	     -6.29142753	      4.00014409	     28.83302555	     28.83302555	      8.03213706	    -11.35341892	      2.32018571	     -7.99744376	      2.73342711	      3.96656739	     57.04091545	    -18.56697158	     -5.54688174	     80.70435455	     44.62764397	      0.00000000	      0.00000000	    -14.92577220	     -9.21525500	     12.55000867	     30.23545341	     44.96367097	      0.00000000	      0.00000000
     53.44428571	     -3.53814435	     -6.51176294	      8.95495296	      0.91341303	      0.91878999	      0.46062838	     -1.53194693	      4.61839075	    -18.54551905	     14.20242236	     14.20242236	     17.96426130	     -3.44530497	     -1.16211286	     28.33063171	     -6.05827797	      3.46242226	     28.73072200	     28.73072200	      8.57885129	    -11.22421911	      2.19619282	     -7.94915028	      2.48366703	      4.21020413	     56.81051648	    -18.50244823	     -5.48200015	     80.15821514	     44.65065682	      0.00000000	      0.00000000	    -14.17872862	     -9.42383467	     12.31396556	     30.54323593	     45.01729323	      0.00000000	      0.00000000
     53.46421429	     -3.74651787	     -6.41363373	      8.52888677	      0.91280000	      0.91967906	      0.45676406	     -1.17607154	      4.00979071	    -18.26540915	     15.22032648	     15.22032648	     17.65711186	     -3.68354050	     -1.22118648	     27.89875520	     -5.91962354	      2.89261977	     28.53402857	     28.53402857	      9.08437367	    -11.00139821	      2.07790045	     -7.86155670	      2.31734656	      4.26712739	     56.45827120	    -18.20997745	     -5.39360219	     79.56263205	     44.67601920	      0.00000000	      0.00000000	    -13.42374999	     -9.64406851	     12.01316447	     30.83525757	     45.08180100	      0.00000000	      0.00000000
     53.48414286	     -3.90978466	     -6.28280915	      8.09032817	      0.91207302	      0.92081960	      0.45303110	     -0.73126507	      3.34936304	    -17.92572942	     16.45899997	     16.45899997	     17.26721929	     -4.06963605	     -1.38274778	     27.31322321	     -5.78502753	      2.21943558	     28.13995832	     28.13995832	      9.52974051	    -10.65993073	      1.93496592	     -7.83452244	      2.12439773	      4.20441595	     55.95568961	    -17.84387265	     -5.29028367	     78.97082436	     44.69884745	      0.00000000	      0.00000000	    -12.63920787	     -9.89466469	     11.72293368	     31.08730445	     45.14309589	      0.00000000	      0.00000000
     53.50407143	     -3.94393515	     -6.30454099	      7.71366211	      0.91134608	      0.92224008	      0.44941560	     -0.44515693	      2.90585551	    -17.67894040	     17.55996521	     17.55996521	     16.75587925	     -4.34181581	     -1.49104869	     26.59382906	     -5.78424550	      1.72660097	     27.67599978	     27.67599978	      9.95223189	    -10.43595865	      1.81739524	     -7.89766374	      2.15101054	      4.05169033	     55.13659108	    -17.41036468	     -5.11175883	     78.54724405	     44.70656036	      0.00000000	      0.00000000	    -11.73786172	    -10.17259746	     11.56817190	     31.33562815	     45.18126460	      0.00000000	      0.00000000
     53.52400000	     -4.14197435	     -5.98276076	      7.23376539	      0.91032351	      0.92352096	      0.44584528	      0.48155853	      1.93602416	    -17.16322459	     19.60317021	     19.60317021	     16.31835965	     -5.21891043	     -1.95554890	     25.83350799	     -5.50533547	      0.71380199	     26.91779938	     26.91779938	     10.24206038	     -9.73270015	      1.58283445	     -7.83711510	      1.74618961	      3.86617733	     54.25047169	    -17.08998828	     -5.03769120	     77.78633093	     44.73241432	      0.00000000	      0.00000000	    -10.82964740	    -10.49467731	     11.31130665	     31.47046148	     45.23649508	      0.00000000	      0.00000000
